# Wavefront OBJ exported by MilkShape 3D

mtllib boat.mtl

v -1.398025 -1.008918 -0.939620
v 4.235241 -1.590546 -0.939620
v -1.398025 1.096509 -0.939620
v 4.235241 1.633648 -0.939620
v -0.807516 0.801592 -1.654861
v 4.018320 1.263563 -1.939620
v -0.807516 -0.783158 -1.654861
v 4.018320 -1.393356 -1.939620
v -7.244898 0.000000 -1.368827
v -2.551020 -1.836735 -1.368827
v 1.653061 -2.530612 -1.368827
v 4.959184 -2.571429 -1.368827
v 7.816326 -2.326531 -1.368827
v 9.693877 -1.959184 -1.368827
v 9.693877 1.836735 -1.368827
v 8.061224 2.040816 -1.368827
v 4.877551 2.285714 -1.368827
v 1.734694 2.326530 -1.368827
v -2.551020 1.877551 -1.368827
v -7.204082 0.040816 -1.368827
v -7.244898 0.000000 -1.368827
v -2.551020 -1.836735 -1.368827
v 1.653061 -2.530612 -1.368827
v 4.959184 -2.571429 -1.368827
v 7.816326 -2.326531 -1.368827
v 9.693877 -1.959184 -1.368827
v 9.693877 1.836735 -1.368827
v 8.061224 2.040816 -1.368827
v 4.877551 2.285714 -1.368827
v 1.734694 2.326530 -1.368827
v -2.551020 1.877551 -1.368827
v -7.204082 0.040816 -1.368827
v -5.608949 0.014777 0.018928
v -2.388461 -1.144910 0.737790
v 1.666855 -1.787325 0.897537
v 4.936852 -1.827202 0.697853
v 7.731483 -1.621163 0.258548
v 9.083978 -1.356545 0.018928
v 9.083978 1.114070 0.018928
v 7.999977 1.249570 0.258548
v 4.850174 1.491863 0.697853
v 1.722666 1.531961 0.897537
v -2.404597 1.095397 0.737790
v -5.608949 0.014777 0.018928
v 0.267633 -0.085769 -1.364312
v 0.227663 -0.130223 -1.364295
v 0.165407 -0.165501 -1.364283
v 0.086959 -0.188151 -1.364274
v 0.000000 -0.195956 -1.364271
v -0.086959 -0.188151 -1.364274
v -0.165406 -0.165501 -1.364283
v -0.227663 -0.130223 -1.364295
v -0.267633 -0.085769 -1.364312
v -0.281406 -0.036492 -1.364330
v -0.267633 0.012785 -1.364348
v -0.227662 0.057238 -1.364364
v -0.165406 0.092516 -1.364377
v -0.086959 0.115166 -1.364386
v 0.000000 0.122971 -1.364388
v 0.086959 0.115166 -1.364386
v 0.165406 0.092516 -1.364377
v 0.227662 0.057238 -1.364364
v 0.267633 0.012785 -1.364348
v 0.281406 -0.036492 -1.364330
v 0.235257 -0.095657 -29.705486
v 0.200122 -0.140111 -29.705469
v 0.145397 -0.175389 -29.705456
v 0.076440 -0.198039 -29.705448
v -0.000000 -0.205844 -29.705444
v -0.076440 -0.198039 -29.705448
v -0.145397 -0.175389 -29.705456
v -0.200122 -0.140111 -29.705469
v -0.235257 -0.095657 -29.705486
v -0.247364 -0.046380 -29.705503
v -0.235257 0.002896 -29.705521
v -0.200122 0.047350 -29.705538
v -0.145397 0.082628 -29.705551
v -0.076440 0.105278 -29.705559
v -0.000000 0.113083 -29.705563
v 0.076440 0.105278 -29.705559
v 0.145397 0.082628 -29.705551
v 0.200122 0.047350 -29.705538
v 0.235257 0.002896 -29.705521
v 0.247364 -0.046380 -29.705503
v 0.000000 -0.036492 -1.364330
v -0.000000 -0.046380 -29.705503
v 2.351824 -0.070690 5.357605
v 1.887511 -0.099357 5.350780
v 1.423198 -0.070690 5.348371
v 1.144630 -0.001483 5.258603
v 1.423198 0.067725 5.348423
v 1.887511 0.096391 5.350853
v 2.351824 0.067725 5.357657
v 2.608348 -0.001483 5.305818
v 2.238565 -0.107111 0.609665
v 1.510009 -0.152092 0.609648
v 0.781452 -0.107111 0.609665
v 0.479674 0.001483 0.609706
v 0.781452 0.110076 0.609747
v 1.510009 0.155057 0.609764
v 2.238565 0.110076 0.609747
v 2.540344 0.001483 0.609706
v 1.887511 -0.001483 5.454909
v 1.510009 0.001483 0.609706
v 8.500103 0.094457 -0.309037
v 8.210673 0.133583 -0.309037
v 7.921243 0.094457 -0.309037
v 7.801358 -0.000000 -0.309037
v 7.921243 -0.094457 -0.309037
v 8.210673 -0.133583 -0.309037
v 8.500103 -0.094457 -0.309037
v 8.619989 -0.000000 -0.309037
v 8.514046 0.018943 2.324220
v 8.345101 0.026789 2.324220
v 8.176158 0.018943 2.324220
v 8.106179 0.010863 2.216882
v 8.176158 -0.018942 2.324220
v 8.345101 -0.026789 2.324220
v 8.514046 -0.018942 2.324220
v 8.584024 -0.032428 2.324220
v 8.210673 -0.000000 -0.309037
v 8.345101 0.000000 2.324220
# 122 vertices

vt 0.000000 0.000000
vt 1.000000 0.000000
vt 1.000000 1.000000
vt 0.000000 1.000000
vt 1.000000 2.000000
vt 0.000000 2.000000
vt 1.000000 3.000000
vt 0.000000 3.000000
vt 1.000000 4.000000
vt 0.000000 4.000000
vt 2.000000 0.000000
vt 2.000000 1.000000
vt -1.000000 0.000000
vt -1.000000 1.000000
vt 0.003734 0.000000
vt 0.266609 0.000000
vt 0.539210 0.092835
vt 0.737473 0.195918
vt 0.899870 0.301693
vt 1.000000 0.383500
vt 0.906209 0.558576
vt 0.775163 0.522796
vt 0.599739 0.441337
vt 0.412505 0.341033
vt 0.180634 0.160486
vt 0.000000 0.001129
vt 0.000000 0.159155
vt 0.050000 0.159155
vt 0.050000 0.477465
vt 0.000000 0.477465
vt 0.100000 0.159155
vt 0.100000 0.477465
vt 0.150000 0.159155
vt 0.150000 0.477465
vt 0.200000 0.159155
vt 0.200000 0.477465
vt 0.250000 0.159155
vt 0.250000 0.477465
vt 0.300000 0.159155
vt 0.300000 0.477465
vt 0.350000 0.159155
vt 0.350000 0.477465
vt 0.400000 0.159155
vt 0.400000 0.477465
vt 0.450000 0.159155
vt 0.450000 0.477465
vt 0.500000 0.159155
vt 0.500000 0.477465
vt 0.550000 0.159155
vt 0.550000 0.477465
vt 0.600000 0.159155
vt 0.600000 0.477465
vt 0.650000 0.159155
vt 0.650000 0.477465
vt 0.700000 0.159155
vt 0.700000 0.477465
vt 0.750000 0.159155
vt 0.750000 0.477465
vt 0.800000 0.159155
vt 0.800000 0.477465
vt 0.850000 0.159155
vt 0.850000 0.477465
vt 0.900000 0.159155
vt 0.900000 0.477465
vt 0.950000 0.159155
vt 0.950000 0.477465
vt 1.000000 0.159155
vt 1.000000 0.477465
vt 0.500000 0.000000
vt 0.500000 0.636620
vt 0.125000 0.159155
vt 0.125000 0.477465
vt 0.375000 0.159155
vt 0.375000 0.477465
vt 0.625000 0.159155
vt 0.625000 0.477465
vt 0.875000 0.159155
vt 0.875000 0.477465
vt 0.125000 0.633246
vt 0.000000 0.633246
vt 0.250000 0.633246
vt 0.375000 0.633246
vt 0.500000 0.633246
vt 0.625000 0.633246
vt 0.750000 0.633246
vt 0.875000 0.633246
vt 1.000000 0.633246
vt 0.500000 0.792401
# 88 texture coordinates

vn -0.000000 0.000000 1.000000
vn -0.098227 0.920472 -0.378263
vn -0.058905 0.000000 -0.998264
vn -0.116304 -0.958145 -0.261594
vn 0.977271 0.000000 -0.211991
vn -0.771143 -0.000000 -0.636662
vn -0.394307 -0.144814 0.907497
vn -0.191482 -0.719126 0.667976
vn -0.048887 -0.753837 0.655240
vn 0.054479 -0.741301 0.668959
vn 0.133641 -0.703271 0.698248
vn 0.494707 -0.377230 0.782920
vn 0.471398 0.370967 0.800105
vn 0.109848 0.686790 0.718507
vn 0.062057 0.727498 0.683298
vn -0.017724 0.743243 0.668787
vn -0.167238 0.712237 0.681725
vn -0.331417 0.539436 0.774062
vn -0.000000 0.000000 -1.000000
vn 0.690610 0.000000 0.723228
vn 0.040144 0.000000 -0.999194
vn 0.150302 0.000000 0.988640
vn -0.015011 0.000000 0.999887
vn 0.477638 -0.380593 0.791840
vn 0.113675 -0.704559 0.700482
vn 1.000000 0.000000 0.000000
vn 0.138938 0.000000 0.990301
vn 0.148638 0.685400 0.712835
vn 0.505557 0.365013 0.781778
vn 0.112356 0.000000 -0.993668
vn 0.065013 0.000000 -0.997884
vn 0.608197 0.000000 0.793786
vn -0.999737 0.000000 0.022948
vn -0.872376 -0.145027 0.466828
vn -0.736523 0.544499 0.401316
vn -0.259761 -0.904467 0.338325
vn -0.079900 -0.943991 0.320153
vn 0.050332 -0.936928 0.345880
vn 0.060426 0.927164 0.369750
vn -0.040958 0.938469 0.342926
vn -0.230736 0.903869 0.360252
vn 0.887398 -0.461003 -0.000834
vn 0.648823 -0.760939 -0.000363
vn 0.408166 -0.912908 0.000021
vn 0.195433 -0.980717 0.000254
vn -0.000000 -1.000000 0.000331
vn -0.195433 -0.980717 0.000254
vn -0.408167 -0.912907 0.000021
vn -0.648823 -0.760939 -0.000363
vn -0.887398 -0.461004 -0.000834
vn -0.999999 -0.000000 -0.001172
vn -0.887398 0.461003 -0.001156
vn -0.648823 0.760939 -0.000894
vn -0.408166 0.912907 -0.000616
vn -0.195433 0.980717 -0.000431
vn 0.000000 1.000000 -0.000367
vn 0.195433 0.980717 -0.000431
vn 0.408166 0.912907 -0.000616
vn 0.648823 0.760939 -0.000894
vn 0.887398 0.461003 -0.001156
vn 0.999999 0.000001 -0.001172
vn 0.061586 -0.998083 0.006193
vn -0.061647 -0.997970 0.016014
vn -0.298991 -0.953194 0.045015
vn -0.299157 0.953083 0.046242
vn -0.061649 0.997949 0.017263
vn 0.061579 0.998074 0.007440
vn 0.303345 0.952880 -0.001250
vn 0.303244 -0.952910 -0.002445
vn -0.006798 -0.728637 0.684866
vn 0.129122 -0.405826 0.904783
vn -0.018310 -0.000290 0.999832
vn -0.172046 -0.293378 0.940388
vn -0.255480 -0.000348 0.966814
vn -0.172051 0.292874 0.940544
vn -0.006801 0.728395 0.685124
vn 0.129140 0.405324 0.905006
vn 0.202544 -0.000371 0.979273
vn 0.101890 0.994295 0.031549
vn -0.101852 0.993915 0.041936
vn -0.502513 0.862099 0.065323
vn -0.575796 -0.814044 0.076099
vn -0.101851 -0.993915 0.041936
vn 0.101890 -0.994295 0.031549
vn 0.392271 -0.919804 0.009166
vn 0.609021 0.792931 0.018799
vn -0.048086 -0.009988 0.998793
vn -0.072817 -0.649430 0.756927
vn -0.411535 -0.085476 0.907377
vn -0.064533 0.575547 0.815218
# 90 normals

g default
# 0 triangles in group

g polySurface7
usemtl initialShadingGroup
s 1
f 1/1/1 2/2/1 4/3/1
f 1/1/1 4/3/1 3/4/1
f 3/4/2 4/3/2 6/5/2
f 3/4/2 6/5/2 5/6/2
f 5/6/3 6/5/3 8/7/3
f 5/6/3 8/7/3 7/8/3
f 7/8/4 8/7/4 2/9/4
f 7/8/4 2/9/4 1/10/4
f 2/2/5 8/11/5 6/12/5
f 2/2/5 6/12/5 4/3/5
f 7/13/6 1/1/6 3/4/6
f 7/13/6 3/4/6 5/14/6
s 7
f 33/15/7 34/16/8 35/17/9
f 33/15/7 35/17/9 36/18/10
f 33/15/7 36/18/10 37/19/11
f 33/15/7 37/19/11 38/20/12
f 33/15/7 38/20/12 39/21/13
f 33/15/7 39/21/13 40/22/14
f 33/15/7 40/22/14 41/23/15
f 33/15/7 41/23/15 42/24/16
f 33/15/7 42/24/16 43/25/17
f 33/15/7 43/25/17 44/26/18
f 9/15/19 20/26/19 19/25/19
f 9/15/19 19/25/19 18/24/19
f 9/15/19 18/24/19 17/23/19
f 9/15/19 17/23/19 16/22/19
f 9/15/19 16/22/19 15/21/19
f 9/15/19 15/21/19 14/20/19
f 9/15/19 14/20/19 13/19/19
f 9/15/19 13/19/19 12/18/19
f 9/15/19 12/18/19 11/17/19
f 9/15/19 11/17/19 10/16/19
f 9/15/20 10/16/20 22/16/20
f 9/15/20 22/16/20 21/15/20
f 10/16/21 11/17/21 23/17/21
f 10/16/21 23/17/21 22/16/21
f 11/17/19 12/18/19 24/18/19
f 11/17/19 24/18/19 23/17/19
f 12/18/22 13/19/22 25/19/22
f 12/18/22 25/19/22 24/18/22
f 13/19/23 14/20/23 26/20/24
f 13/19/23 26/20/24 25/19/25
f 14/20/26 15/21/26 27/21/26
f 14/20/26 27/21/26 26/20/26
f 15/21/27 16/22/27 28/22/28
f 15/21/27 28/22/28 27/21/29
f 16/22/30 17/23/30 29/23/30
f 16/22/30 29/23/30 28/22/30
f 17/23/19 18/24/19 30/24/19
f 17/23/19 30/24/19 29/23/19
f 18/24/31 19/25/31 31/25/31
f 18/24/31 31/25/31 30/24/31
f 19/25/32 20/26/32 32/26/32
f 19/25/32 32/26/32 31/25/32
f 20/26/33 9/15/33 21/15/34
f 20/26/33 21/15/34 32/26/35
f 21/15/34 22/16/36 34/16/8
f 21/15/34 34/16/8 33/15/7
f 22/16/36 23/17/37 35/17/9
f 22/16/36 35/17/9 34/16/8
f 23/17/37 24/18/38 36/18/10
f 23/17/37 36/18/10 35/17/9
f 24/18/38 25/19/25 37/19/11
f 24/18/38 37/19/11 36/18/10
f 25/19/25 26/20/24 38/20/12
f 25/19/25 38/20/12 37/19/11
f 26/20/24 27/21/29 39/21/13
f 26/20/24 39/21/13 38/20/12
f 27/21/29 28/22/28 40/22/14
f 27/21/29 40/22/14 39/21/13
f 28/22/28 29/23/39 41/23/15
f 28/22/28 41/23/15 40/22/14
f 29/23/39 30/24/40 42/24/16
f 29/23/39 42/24/16 41/23/15
f 30/24/40 31/25/41 43/25/17
f 30/24/40 43/25/17 42/24/16
f 31/25/41 32/26/35 44/26/18
f 31/25/41 44/26/18 43/25/17
f 32/26/35 21/15/34 33/15/7
f 32/26/35 33/15/7 44/26/18
s 18
f 45/27/42 46/28/43 66/29/43
f 45/27/42 66/29/43 65/30/42
f 46/28/43 47/31/44 67/32/44
f 46/28/43 67/32/44 66/29/43
f 47/31/44 48/33/45 68/34/45
f 47/31/44 68/34/45 67/32/44
f 48/33/45 49/35/46 69/36/46
f 48/33/45 69/36/46 68/34/45
f 49/35/46 50/37/47 70/38/47
f 49/35/46 70/38/47 69/36/46
f 50/37/47 51/39/48 71/40/48
f 50/37/47 71/40/48 70/38/47
f 51/39/48 52/41/49 72/42/49
f 51/39/48 72/42/49 71/40/48
f 52/41/49 53/43/50 73/44/50
f 52/41/49 73/44/50 72/42/49
f 53/43/50 54/45/51 74/46/51
f 53/43/50 74/46/51 73/44/50
f 54/45/51 55/47/52 75/48/52
f 54/45/51 75/48/52 74/46/51
f 55/47/52 56/49/53 76/50/53
f 55/47/52 76/50/53 75/48/52
f 56/49/53 57/51/54 77/52/54
f 56/49/53 77/52/54 76/50/53
f 57/51/54 58/53/55 78/54/55
f 57/51/54 78/54/55 77/52/54
f 58/53/55 59/55/56 79/56/56
f 58/53/55 79/56/56 78/54/55
f 59/55/56 60/57/57 80/58/57
f 59/55/56 80/58/57 79/56/56
f 60/57/57 61/59/58 81/60/58
f 60/57/57 81/60/58 80/58/57
f 61/59/58 62/61/59 82/62/59
f 61/59/58 82/62/59 81/60/58
f 62/61/59 63/63/60 83/64/60
f 62/61/59 83/64/60 82/62/59
f 63/63/60 64/65/61 84/66/61
f 63/63/60 84/66/61 83/64/60
f 64/65/61 45/67/42 65/68/42
f 64/65/61 65/68/42 84/66/61
s 19
f 46/28/1 45/27/1 85/69/1
f 47/31/1 46/28/1 85/69/1
f 48/33/1 47/31/1 85/69/1
f 49/35/1 48/33/1 85/69/1
f 50/37/1 49/35/1 85/69/1
f 51/39/1 50/37/1 85/69/1
f 52/41/1 51/39/1 85/69/1
f 53/43/1 52/41/1 85/69/1
f 54/45/1 53/43/1 85/69/1
f 55/47/1 54/45/1 85/69/1
f 56/49/1 55/47/1 85/69/1
f 57/51/1 56/49/1 85/69/1
f 58/53/1 57/51/1 85/69/1
f 59/55/1 58/53/1 85/69/1
f 60/57/1 59/55/1 85/69/1
f 61/59/1 60/57/1 85/69/1
f 62/61/1 61/59/1 85/69/1
f 63/63/1 62/61/1 85/69/1
f 64/65/1 63/63/1 85/69/1
f 45/67/1 64/65/1 85/69/1
s 20
f 65/30/19 66/29/19 86/70/19
f 66/29/19 67/32/19 86/70/19
f 67/32/19 68/34/19 86/70/19
f 68/34/19 69/36/19 86/70/19
f 69/36/19 70/38/19 86/70/19
f 70/38/19 71/40/19 86/70/19
f 71/40/19 72/42/19 86/70/19
f 72/42/19 73/44/19 86/70/19
f 73/44/19 74/46/19 86/70/19
f 74/46/19 75/48/19 86/70/19
f 75/48/19 76/50/19 86/70/19
f 76/50/19 77/52/19 86/70/19
f 77/52/19 78/54/19 86/70/19
f 78/54/19 79/56/19 86/70/19
f 79/56/19 80/58/19 86/70/19
f 80/58/19 81/60/19 86/70/19
f 81/60/19 82/62/19 86/70/19
f 82/62/19 83/64/19 86/70/19
f 83/64/19 84/66/19 86/70/19
f 84/66/19 65/68/19 86/70/19
f 87/27/62 88/71/62 96/72/62
f 87/27/62 96/72/62 95/30/62
f 88/71/63 89/37/63 97/38/63
f 88/71/63 97/38/63 96/72/63
f 89/37/64 90/73/64 98/74/64
f 89/37/64 98/74/64 97/38/64
f 90/73/65 91/47/65 99/48/65
f 90/73/65 99/48/65 98/74/65
f 91/47/66 92/75/66 100/76/66
f 91/47/66 100/76/66 99/48/66
f 92/75/67 93/57/67 101/58/67
f 92/75/67 101/58/67 100/76/67
f 93/57/68 94/77/68 102/78/68
f 93/57/68 102/78/68 101/58/68
f 94/77/69 87/67/69 95/68/69
f 94/77/69 95/68/69 102/78/69
s 29
f 88/71/70 87/27/71 103/69/72
f 89/37/73 88/71/70 103/69/72
f 90/73/74 89/37/73 103/69/72
f 91/47/75 90/73/74 103/69/72
f 92/75/76 91/47/75 103/69/72
f 93/57/77 92/75/76 103/69/72
f 94/77/78 93/57/77 103/69/72
f 87/67/71 94/77/78 103/69/72
s 30
f 95/30/19 96/72/19 104/70/19
f 96/72/19 97/38/19 104/70/19
f 97/38/19 98/74/19 104/70/19
f 98/74/19 99/48/19 104/70/19
f 99/48/19 100/76/19 104/70/19
f 100/76/19 101/58/19 104/70/19
f 101/58/19 102/78/19 104/70/19
f 102/78/19 95/68/19 104/70/19
f 105/27/79 106/71/79 114/79/79
f 105/27/79 114/79/79 113/80/79
f 106/71/80 107/37/80 115/81/80
f 106/71/80 115/81/80 114/79/80
f 107/37/81 108/73/81 116/82/81
f 107/37/81 116/82/81 115/81/81
f 108/73/82 109/47/82 117/83/82
f 108/73/82 117/83/82 116/82/82
f 109/47/83 110/75/83 118/84/83
f 109/47/83 118/84/83 117/83/83
f 110/75/84 111/57/84 119/85/84
f 110/75/84 119/85/84 118/84/84
f 111/57/85 112/77/85 120/86/85
f 111/57/85 120/86/85 119/85/85
f 112/77/86 105/67/86 113/87/86
f 112/77/86 113/87/86 120/86/86
s 6
f 106/71/19 105/27/19 121/69/19
f 107/37/19 106/71/19 121/69/19
f 108/73/19 107/37/19 121/69/19
f 109/47/19 108/73/19 121/69/19
f 110/75/19 109/47/19 121/69/19
f 111/57/19 110/75/19 121/69/19
f 112/77/19 111/57/19 121/69/19
f 105/67/19 112/77/19 121/69/19
s 7
f 113/80/1 114/79/1 122/88/87
f 114/79/1 115/81/88 122/88/87
f 115/81/88 116/82/89 122/88/87
f 116/82/89 117/83/90 122/88/87
f 117/83/90 118/84/1 122/88/87
f 118/84/1 119/85/26 122/88/87
f 119/85/26 120/86/26 122/88/87
f 120/86/26 113/87/1 122/88/87
# 224 triangles in group

# 224 triangles total

