# File produced by Open Asset Import Library (http://www.assimp.sf.net)
# (assimp v5.0.639693989)

mtllib 1ryxo4fzs5ud.mtl

# 36 vertex positions
v  -4.1682062 6.2732501 -3.6619771
v  -6.9093242 4.669693 -3.6367719
v  -8.5482588 5.5637221 -7.3629088
v  -5.9766779 7.544415 -7.2220869
v  -8.2341566 2.0770681 -3.371089
v  -9.8009319 2.596559 -7.5128951
v  -8.3095627 -0.73212099 -3.3436141
v  -9.9448309 -1.525896 -7.5206699
v  -7.3354301 -2.9081111 -3.5544879
v  -8.5438604 -4.0226078 -7.3910189
v  -4.2696629 -5.1183882 -3.7415049
v  -5.7867169 -6.2459049 -7.2734261
v  -9.7249966 5.9486752 -12.635136
v  -6.8149199 8.30651 -12.359794
v  -10.63707 2.736305 -12.446709
v  -10.547914 -1.699927 -12.498494
v  -9.3542271 -4.6390648 -12.703844
v  -6.9048891 -6.5906348 -12.477901
v  -8.5816975 5.708653 -17.650824
v  -6.7660942 7.832974 -18.270021
v  -9.9367905 2.4910991 -17.422211
v  -9.654911 -1.4916101 -17.430407
v  -8.8810654 -4.4127679 -17.668436
v  -6.5278692 -6.417335 -18.001448
v  -6.0126028 4.0525532 -22.07748
v  -4.5063291 5.642993 -22.226891
v  -6.8851781 1.85495 -21.829721
v  -6.8359699 -0.98166603 -21.826044
v  -6.3040762 -3.159348 -21.940477
v  -4.8527818 -4.4364991 -22.410418
v  -1.173187 -0.116079 -25.672144
v  -1.215598 -0.084017001 -25.737787
v  -1.194694 -0.094809003 -25.595228
v  -1.1911581 -0.107463 -25.653454
v  -1.2148679 -0.119752 -25.688978
v  -1.188333 -0.125257 -25.723888

# 36 UV coordinates
vt 0 0 0
vt 0.2 0 0
vt 0.2 0.19999999 0
vt 0 0.19999999 0
vt 0.40000001 0 0
vt 0.40000001 0.19999999 0
vt 0.60000002 0 0
vt 0.60000002 0.19999999 0
vt 0.80000001 0 0
vt 0.80000001 0.19999999 0
vt 1 0 0
vt 1 0.19999999 0
vt 0.2 0.39999998 0
vt 0 0.39999998 0
vt 0.40000001 0.39999998 0
vt 0.60000002 0.39999998 0
vt 0.80000001 0.39999998 0
vt 1 0.39999998 0
vt 0.2 0.60000002 0
vt 0 0.60000002 0
vt 0.40000001 0.60000002 0
vt 0.60000002 0.60000002 0
vt 0.80000001 0.60000002 0
vt 1 0.60000002 0
vt 0.2 0.80000001 0
vt 0 0.80000001 0
vt 0.40000001 0.80000001 0
vt 0.60000002 0.80000001 0
vt 0.80000001 0.80000001 0
vt 1 0.80000001 0
vt 0.2 1 0
vt 0 1 0
vt 0.40000001 1 0
vt 0.60000002 1 0
vt 0.80000001 1 0
vt 1 1 0

# 36 vertex normals
vn 0.50441802 -0.73294199 -0.456462
vn 0.712681 -0.546996 -0.43918201
vn 0.78572798 -0.52981502 -0.31926101
vn 0.56727302 -0.75415498 -0.33083501
vn 0.902538 -0.190607 -0.38612801
vn 0.94813502 -0.167888 -0.269914
vn 0.90939802 0.16399901 -0.38223001
vn 0.95054901 0.16896801 -0.26058799
vn 0.71669698 0.56224102 -0.41258901
vn 0.76547801 0.57406998 -0.290667
vn 0.54597503 0.72367603 -0.42214301
vn 0.58909398 0.74843901 -0.30464301
vn 0.86584198 -0.50016302 -0.01243
vn 0.66307402 -0.74772298 -0.035255
vn 0.991 -0.13361301 0.0081010005
vn 0.98616099 0.165396 0.011392
vn 0.84299803 0.53772098 -0.014495
vn 0.63415998 0.77149898 -0.051286999
vn 0.817487 -0.43085599 0.3822
vn 0.69670701 -0.603365 0.38800699
vn 0.92730701 -0.115403 0.35606799
vn 0.92958897 0.136095 0.34255299
vn 0.83226001 0.43101501 0.34866601
vn 0.64428198 0.69339001 0.32266101
vn 0.62726003 -0.28079301 0.72643
vn 0.55656397 -0.378252 0.73970401
vn 0.708794 -0.082843997 0.70053399
vn 0.72307402 0.074731998 0.68671602
vn 0.65995699 0.25746101 0.70581198
vn 0.56701201 0.41308501 0.712641
vn 0.48468199 -0.178809 0.85621899
vn 0.42606899 -0.26996201 0.863473
vn 0.54537499 -0.049295999 0.83674097
vn 0.55714297 0.033449002 0.82974303
vn 0.52543902 0.148739 0.83772999
vn 0.487075 0.22951999 0.84266102

# Mesh '' with 50 faces
usemtl MatSpi1
f  1/1/1 2/2/2 3/3/3
f  1/1/1 3/3/3 4/4/4
f  2/2/2 5/5/5 6/6/6
f  2/2/2 6/6/6 3/3/3
f  5/5/5 7/7/7 8/8/8
f  5/5/5 8/8/8 6/6/6
f  7/7/7 9/9/9 10/10/10
f  7/7/7 10/10/10 8/8/8
f  9/9/9 11/11/11 12/12/12
f  9/9/9 12/12/12 10/10/10
f  4/4/4 3/3/3 13/13/13
f  4/4/4 13/13/13 14/14/14
f  3/3/3 6/6/6 15/15/15
f  3/3/3 15/15/15 13/13/13
f  6/6/6 8/8/8 16/16/16
f  6/6/6 16/16/16 15/15/15
f  8/8/8 10/10/10 17/17/17
f  8/8/8 17/17/17 16/16/16
f  10/10/10 12/12/12 18/18/18
f  10/10/10 18/18/18 17/17/17
f  14/14/14 13/13/13 19/19/19
f  14/14/14 19/19/19 20/20/20
f  13/13/13 15/15/15 21/21/21
f  13/13/13 21/21/21 19/19/19
f  15/15/15 16/16/16 22/22/22
f  15/15/15 22/22/22 21/21/21
f  16/16/16 17/17/17 23/23/23
f  16/16/16 23/23/23 22/22/22
f  17/17/17 18/18/18 24/24/24
f  17/17/17 24/24/24 23/23/23
f  20/20/20 19/19/19 25/25/25
f  20/20/20 25/25/25 26/26/26
f  19/19/19 21/21/21 27/27/27
f  19/19/19 27/27/27 25/25/25
f  21/21/21 22/22/22 28/28/28
f  21/21/21 28/28/28 27/27/27
f  22/22/22 23/23/23 29/29/29
f  22/22/22 29/29/29 28/28/28
f  23/23/23 24/24/24 30/30/30
f  23/23/23 30/30/30 29/29/29
f  26/26/26 25/25/25 31/31/31
f  26/26/26 31/31/31 32/32/32
f  25/25/25 27/27/27 33/33/33
f  25/25/25 33/33/33 31/31/31
f  27/27/27 28/28/28 34/34/34
f  27/27/27 34/34/34 33/33/33
f  28/28/28 29/29/29 35/35/35
f  28/28/28 35/35/35 34/34/34
f  29/29/29 30/30/30 36/36/36
f  29/29/29 36/36/36 35/35/35

